<?xml version="1.0" encoding="UTF-8" standalone="no" ?>
<!DOCTYPE svg PUBLIC "-//W3C//DTD SVG 1.1//EN" "http://www.w3.org/Graphics/SVG/1.1/DTD/svg11.dtd">
<svg xmlns="http://www.w3.org/2000/svg" xmlns:xlink="http://www.w3.org/1999/xlink" version="1.1" width="1080" height="1080" viewBox="0 0 1080 1080" xml:space="preserve">
<desc>Created with Fabric.js 5.2.4</desc>
<defs>
</defs>
<rect x="0" y="0" width="100%" height="100%" fill="transparent"></rect>
<g transform="matrix(1 0 0 1 540 540)" id="f9d392b3-0a4a-4bec-8555-37290317378b"  >
</g>
<g transform="matrix(1 0 0 1 540 540)" id="243b7ff3-7ca9-43eb-97b4-90f9ac27b206"  >
<rect style="stroke: none; stroke-width: 1; stroke-dasharray: none; stroke-linecap: butt; stroke-dashoffset: 0; stroke-linejoin: miter; stroke-miterlimit: 4; fill: rgb(255,255,255); fill-rule: nonzero; opacity: 1; visibility: hidden;" vector-effect="non-scaling-stroke"  x="-540" y="-540" rx="0" ry="0" width="1080" height="1080" />
</g>
<g transform="matrix(5.67 0 0 5.67 539.63 539.86)"  >
<path style="stroke: rgb(187,247,208); stroke-width: 0; stroke-dasharray: none; stroke-linecap: butt; stroke-dashoffset: 0; stroke-linejoin: miter; stroke-miterlimit: 4; fill: rgb(187,247,208); fill-opacity: 0.95; fill-rule: nonzero; opacity: 1;" vector-effect="non-scaling-stroke"  transform=" translate(-94.14, -35.99)" d="M 176.367 0 L 188.281 0 L 188.281 71.973 L 176.367 71.973 L 148.145 22.364 L 148.145 71.973 L 136.23 71.973 L 136.23 0 L 148.145 0 L 176.367 49.61 L 176.367 0 Z M 45.02 8.887 L 11.914 8.887 L 11.914 31.543 L 41.992 31.543 L 41.992 39.551 L 11.914 39.551 L 11.914 63.086 L 45.02 63.086 L 45.02 71.973 L 0 71.973 L 0 0 L 45.02 0 L 45.02 8.887 Z M 88.672 71.973 L 61.426 71.973 L 61.426 0 L 83.105 0 Q 92.188 0 99.072 2.881 C 101.54151706680801 3.899627487867944 103.89052457643538 5.188831495150584 106.076 6.724999999999994 C 107.67055380628975 7.8524593190466945 109.15154102049735 9.132498471625038 110.49799999999999 10.546999999999995 C 113.48453256610249 13.67173932290887 115.79493520609415 17.378527940393663 117.285 21.435999999999986 C 118.77296667607176 25.452425069130516 119.53351497339085 29.70181090308298 119.531 33.985000000000014 C 119.53603128181402 36.08828612014152 119.44660787213014 38.19073725602998 119.26300000000002 40.28599999999994 Q 118.817 45.234 117.627 49.17 C 117.10642864870117 50.91122740558808 116.48436442065181 52.620484938269044 115.764 54.288999999999994 Q 114.441 57.328 112.793 59.717 C 111.84050595200387 61.11140946038203 110.7641424942763 62.41703565708453 109.577 63.61800000000001 C 108.547099807615 64.65749621859104 107.41617933204172 65.59177856645059 106.201 66.407 Q 102.539 68.848 99.121 70.069 C 98.17474238315097 70.40931641236521 97.21455627933292 70.70958308833333 96.243 70.969 Q 94.464 71.439 92.871 71.631 C 92.43008551014665 71.68463022234512 91.98873723951151 71.73463191463762 91.547 71.781 Q 90.216 71.919 89.311 71.958 C 89.09813031760783 71.96752632775434 88.88508221255029 71.97252745698104 88.672 71.973 Z M 73.145 63.379 L 84.766 63.379 Q 93.342 63.379 98.477 59.432 C 99.81967713446126 58.39710474535403 100.99247754689233 57.15884884385171 101.953 55.762 C 103.4057386120828 53.61195463113316 104.52348552419345 51.253727812640896 105.268 48.76800000000001 Q 106.309 45.438 106.796 41.391 C 107.09305335391271 38.83555642427854 107.23697706175555 36.26463153638559 107.22700000000002 33.69200000000003 C 107.22678447006528 30.697249644508815 106.86585167725536 27.713426640135083 106.15200000000002 24.805000000000003 C 105.42682382502558 21.857630271640698 104.00347162400581 19.12788083358858 102.002 16.846000000000007 Q 98.926 13.282 93.652 11.084 C 92.16751171949207 10.478249412060961 90.62851001503292 10.01581221583422 89.05600000000001 9.703 Q 85.098 8.887 79.98 8.887 L 73.145 8.887 L 73.145 63.379 Z" stroke-linecap="round" />
</g>
<g transform="matrix(0 0 0 0 0 0)"  >
<g style=""   >
</g>
</g>
<g transform="matrix(0 0 0 0 0 0)"  >
<g style=""   >
</g>
</g>
<g transform="matrix(0 0 0 0 0 0)"  >
<g style=""   >
</g>
</g>
<g transform="matrix(0 0 0 0 0 0)"  >
<g style=""   >
</g>
</g>
</svg>